<svg fill="none" height="186" viewBox="0 0 290 186" width="290" xmlns="http://www.w3.org/2000/svg">
    <g clip-path="url(#clip0_344_412)">
        <path
            d="M61.5378 43.8019L72.5056 58.8694C72.5056 58.8694 81.8566 62.8267 92.7855 70.7722L90.1694 74.8821C90.1694 74.8821 72.1305 67.4484 67.5141 64.3075L59.0845 51.0079L61.5378 43.8019Z"
            fill="#A0616A" />
        <path
            d="M99.3439 78.0702C100.391 76.5287 99.1478 73.8409 96.5681 72.0668C93.9884 70.2927 91.0486 70.1042 90.0019 71.6457C88.9552 73.1871 90.198 75.875 92.7777 77.649C95.3574 79.4231 98.2972 79.6117 99.3439 78.0702Z"
            fill="#A0616A" />
        <path
            d="M56.1768 30.939L59.7661 29.9144C59.7661 29.9144 61.8554 29.9185 63.0341 31.9837C64.2128 34.049 72.5584 52.4634 72.1629 53.1767C71.7673 53.8901 71.2151 54.0477 71.9239 54.4458C72.6328 54.8439 73.2817 54.6421 72.7986 55.2386C72.3155 55.8351 72.9832 57.1456 72.9832 57.1456L63.776 63.9819L56.1768 30.939V30.939Z"
            fill="#0DA6E7" />
        <path d="M42.2511 182.357L46.6301 182.357L48.7131 165.359L42.2502 165.359L42.2511 182.357Z"
            fill="#A0616A" />
        <path
            d="M57.254 182.257C57.3903 182.488 57.4623 183.234 57.4623 183.503C57.4623 184.329 56.7969 184.998 55.9761 184.998H42.4151C41.8551 184.998 41.4012 184.542 41.4012 183.978V183.41C41.4012 183.41 40.7303 181.702 42.1115 179.597C42.1115 179.597 43.8281 181.245 46.3931 178.664L47.1495 177.285L52.6249 181.315L55.6598 181.691C56.3238 181.773 56.9125 181.678 57.254 182.257V182.257Z"
            fill="#2F2E41" />
        <path d="M58.1001 178.062L62.4186 178.792L67.2713 162.376L60.8977 161.299L58.1001 178.062Z"
            fill="#A0616A" />
        <path
            d="M72.9117 180.465C73.0081 180.716 72.9563 181.463 72.912 181.729C72.776 182.543 72.0096 183.093 71.2001 182.956L57.8265 180.695C57.2743 180.601 56.9019 180.075 56.9946 179.519L57.0882 178.959C57.0882 178.959 56.7077 177.163 58.4164 175.317C58.4164 175.317 59.8379 177.229 62.7925 175.111L63.7655 173.877L68.5017 178.764L71.4328 179.641C72.074 179.833 72.6702 179.837 72.9117 180.465H72.9117Z"
            fill="#2F2E41" />
        <path
            d="M67.0765 90.8424C67.0765 90.8424 72.9599 97.7741 72.9599 104.128C72.9599 110.482 73.1034 130.443 73.1034 130.443C73.1034 130.443 69.6595 161.604 68.7985 164.203C67.9375 166.803 67.507 171.135 67.507 171.135L59.1843 169.113C59.1843 169.113 58.0363 139.798 61.4802 132.866L53.1575 109.183L50.2875 176.189H40.6259C40.6259 176.189 35.651 140.953 38.2339 131.711C38.2339 131.711 32.4941 96.4744 33.929 94.4527C35.364 92.4309 67.0765 90.8424 67.0765 90.8424Z"
            fill="#2F2E41" />
        <path
            d="M45.6956 21.8139L53.4444 22.3915L56.0273 26.7238C56.0273 26.7238 62.0542 29.3232 62.9151 33.0779C63.7761 36.8326 64.0631 80.7336 64.0631 80.7336L68.368 87.0877L68.081 92.5753L33.642 94.3082V89.0321L30.4851 82.7553C30.4851 82.7553 33.929 32.5003 34.79 32.2114C35.6509 31.9226 42.2518 27.3015 42.2518 27.3015L45.6956 21.8138V21.8139Z"
            fill="#0DA6E7" />
        <path
            d="M49.2025 20.7392C54.5916 20.7392 58.9602 16.3426 58.9602 10.9192C58.9602 5.49579 54.5916 1.09924 49.2025 1.09924C43.8135 1.09924 39.4448 5.49579 39.4448 10.9192C39.4448 16.3426 43.8135 20.7392 49.2025 20.7392Z"
            fill="#A0616A" />
        <path
            d="M56.9967 3.02063C56.5002 1.60347 55.1228 0.743713 53.63 0.777202C53.5667 0.778604 53.5035 0.778015 53.4409 0.775427C52.6891 0.744494 51.9675 0.486088 51.2304 0.334496C49.8565 0.0519416 48.4079 0.146541 47.0818 0.605385C46.6696 0.748018 46.257 0.927375 45.8211 0.927424C45.3852 0.927485 44.9104 0.686957 44.8041 0.261577C44.7789 0.646709 44.7537 1.03182 44.7286 1.41693C44.5867 1.10523 44.4449 0.793509 44.303 0.481791L44.019 1.72489L43.109 0.685976C43.1903 1.14389 42.9251 1.60542 42.5659 1.89818C42.2067 2.19097 41.7631 2.35291 41.3379 2.53532C39.5026 3.32261 37.7794 4.7165 37.2505 6.65249C36.9164 7.87564 37.0912 9.17377 37.2682 10.4297C37.4247 11.54 37.5949 12.6887 38.1946 13.6338C38.579 14.2397 39.1331 14.7495 39.3672 15.4287C39.5853 16.0618 39.5027 16.7866 39.8131 17.3794C40.1248 17.9749 40.7684 18.3118 41.3982 18.538C42.028 18.7643 42.6976 18.9244 43.24 19.3181C43.7824 19.7119 44.4119 20.8462 45.5936 20.7851L45.975 20.064C46.3674 19.7423 44.9153 19.9973 44.9002 19.4882C44.885 18.9791 46.6473 18.6646 46.3976 18.2216C46.0145 17.5423 45.4963 16.9511 45.0647 16.3019C44.5599 15.5427 44.163 14.6556 44.3372 13.729C44.4049 13.3685 44.5725 13.028 44.8279 12.7662C45.564 12.0114 46.3847 12.3431 47.1824 12.4511C47.7321 12.5256 48.3887 12.4396 48.6742 11.9609C49.0081 11.4009 48.6359 10.6884 48.6815 10.0369C48.7297 9.34652 49.2494 8.78043 49.815 8.38684C50.3807 7.99326 51.0229 7.70651 51.5317 7.24101C52.0405 6.77546 52.403 6.04818 52.1812 5.39312C54.5931 4.38256 54.9624 4.28698 57.5022 4.90326C57.3812 4.26405 57.2117 3.63427 56.9967 3.02064L56.9967 3.02063Z"
            fill="#2F2E41" />
        <path
            d="M15.8027 128.617V98.8101C15.8027 97.9926 16.149 97.2101 16.7527 96.6631C17.3565 96.1163 18.1659 95.8517 18.9739 95.9374C26.4591 94.924 33.5089 95.406 39.898 98.1578C40.6217 98.1578 41.2104 98.7503 41.2104 99.4787V129.39C41.2104 130.118 40.6217 130.711 39.898 130.711C32.8651 129.051 25.4473 129.483 17.883 130.711C16.736 130.711 15.8027 129.771 15.8027 128.617Z"
            fill="#E6E6E6" />
        <path
            d="M15.8027 131.27V101.148C15.8027 99.5557 17.0903 98.2598 18.673 98.2598C25.8307 96.3751 32.9058 96.3719 39.898 98.2598C40.6217 98.2598 41.2104 98.8524 41.2104 99.5807V129.186C41.2104 129.913 40.6234 130.505 39.9012 130.506C33.0068 129.299 25.6214 130.475 17.883 133.364C16.736 133.364 15.8027 132.425 15.8027 131.27Z"
            fill="#F2F2F2" />
        <path
            d="M32.3309 110.708H25.6379C23.2341 110.708 21.2786 108.74 21.2786 106.321C21.2786 103.902 23.2341 101.934 25.6379 101.934H32.3309C34.7348 101.934 36.6903 103.902 36.6903 106.321C36.6903 108.74 34.7348 110.708 32.3309 110.708Z"
            fill="#E6E6E6" />
        <path
            d="M38.4652 51.5447L38.2094 67.0961C38.2094 67.0961 37.3917 79.2159 35.3611 92.8552L30.521 93.1659C30.521 93.1659 31.1165 71.8699 30.8996 66.2663L31.2418 53.8201L38.4652 51.5447H38.4652Z"
            fill="#A0616A" />
        <path
            d="M33.3983 102.495C35.2524 102.431 36.6694 99.8325 36.5633 96.6898C36.4571 93.5472 34.868 91.051 33.0139 91.1144C31.1598 91.1778 29.7428 93.7769 29.8489 96.9195C29.9551 100.062 31.5442 102.558 33.3983 102.495Z"
            fill="#A0616A" />
        <path
            d="M38.3899 31.746L34.6615 31.8826C34.6615 31.8826 32.6748 32.5335 32.1848 34.8635C31.6947 37.1936 28.2597 61.3077 28.8542 61.8639C29.4487 62.4201 30.0223 62.3991 29.4695 62.9974C28.9168 63.5957 28.2376 63.6046 28.8797 64.0226C29.5218 64.4405 29.2872 65.8942 29.2872 65.8942L39.5991 65.159L38.3899 31.746Z"
            fill="#0DA6E7" />
        <path
            d="M284.382 170.687H185.181C184.606 170.687 184.036 170.598 183.487 170.424L183.429 170.4C152.366 154.864 125.735 146.385 102.011 144.478L101.921 144.46C99.5742 143.713 97.9976 141.546 97.9976 139.069V5.65852C97.9976 3.83684 98.8352 2.17448 100.295 1.09792C101.756 0.0213578 103.583 -0.280726 105.31 0.268134L183.732 25.2317C184.202 25.3812 184.689 25.4569 185.181 25.4569H284.382C287.48 25.4569 290 27.9932 290 31.1104V165.033C290 168.151 287.48 170.687 284.382 170.687ZM183.761 169.653C184.222 169.796 184.699 169.869 185.181 169.869H284.382C287.032 169.869 289.187 167.7 289.187 165.033V31.1104C289.187 28.444 287.032 26.2747 284.382 26.2747H185.181C184.606 26.2747 184.036 26.1862 183.487 26.0115L105.064 1.048C103.588 0.577607 102.025 0.836764 100.776 1.75759C99.5266 2.67861 98.8102 4.10038 98.8102 5.65852V139.069C98.8102 141.173 100.139 143.014 102.123 143.666C125.932 145.589 152.638 154.09 183.761 169.653L183.761 169.653Z"
            fill="#3F3D56" />
        <path
            d="M187.83 164.629C214.878 154.996 245.053 156.102 277.109 163.668C281.133 164.618 284.992 161.569 284.992 157.409V35.5096C284.992 32.5494 282.986 29.9612 280.129 29.2581C246.313 20.9359 214.726 19.4047 186.89 29.2939C184.85 30.0183 182.587 29.6258 180.866 28.3076C157.409 10.3379 133.403 1.32809 108.68 4.00333C105.445 4.3533 103.006 7.12722 103.006 10.4009V133.629C103.006 136.929 105.487 139.688 108.748 140.029C135.358 142.814 159.811 151.256 182.551 164.183C184.162 165.098 186.087 165.25 187.83 164.629Z"
            fill="#F2F2F2" />
        <path
            d="M186.962 157.793C185.12 157.793 183.305 157.283 181.706 156.284C162.608 144.347 141.801 137.374 119.863 135.558C114.72 135.132 110.691 130.717 110.691 125.507V20.2496C110.691 14.8472 114.854 10.4206 120.169 10.172C136.141 9.42248 155.535 16.5908 181.198 32.7231C183.369 34.0873 186.009 34.4924 188.441 33.836C212.831 27.2472 239.27 27.0548 269.269 33.2476C273.926 34.2091 277.307 38.3692 277.307 43.1397V145.88C277.307 148.981 275.921 151.861 273.505 153.781C271.071 155.716 267.94 156.409 264.913 155.684C236.534 148.887 212.165 149.378 190.412 157.187C189.283 157.592 188.116 157.793 186.962 157.793ZM122.449 10.9371C121.693 10.9371 120.947 10.9543 120.206 10.989C115.326 11.2172 111.504 15.2849 111.504 20.2496V125.507C111.504 130.295 115.205 134.352 119.93 134.743C141.997 136.57 162.926 143.584 182.135 155.589C184.525 157.084 187.443 157.385 190.139 156.417L190.276 156.802L190.139 156.417C212.044 148.553 236.564 148.053 265.101 154.889C267.885 155.555 270.764 154.918 273.002 153.139C275.221 151.375 276.494 148.729 276.494 145.88V43.1397C276.494 38.7558 273.387 34.9325 269.106 34.0486C239.233 27.8815 212.917 28.0704 188.652 34.6258C186.002 35.341 183.129 34.9007 180.768 33.4167C156.447 18.1286 137.823 10.9371 122.449 10.9371Z"
            fill="white" />
        <path d="M185.116 34.4468L184.304 34.4543L185.434 157.606L186.247 157.598L185.116 34.4468Z"
            fill="white" />
        <path d="M118.613 26.3196L118.358 27.0958L175.254 46.042L175.51 45.2658L118.613 26.3196Z"
            fill="#3F3D56" />
        <path d="M118.613 41.4767L118.358 42.2529L175.254 61.1991L175.51 60.4229L118.613 41.4767Z"
            fill="#3F3D56" />
        <path d="M118.613 56.6337L118.358 57.4099L175.254 76.3561L175.51 75.5799L118.613 56.6337Z"
            fill="#3F3D56" />
        <path d="M118.613 71.7905L118.358 72.5668L175.254 91.513L175.51 90.7368L118.613 71.7905Z"
            fill="#3F3D56" />
        <path d="M267.002 46.0873H198.81V46.9051H267.002V46.0873Z" fill="#3F3D56" />
        <path d="M267.002 60.4022H198.81V61.22H267.002V60.4022Z" fill="#3F3D56" />
        <path d="M267.002 74.7169H198.81V75.5347H267.002V74.7169Z" fill="#3F3D56" />
        <path d="M267.002 89.032H198.81V89.8498H267.002V89.032Z" fill="#3F3D56" />
        <path d="M267.002 103.347H198.81V104.165H267.002V103.347Z" fill="#3F3D56" />
        <path d="M267.002 117.662H198.81V118.48H267.002V117.662Z" fill="#3F3D56" />
        <path
            d="M22.0459 178.912C21.2065 178.965 20.7426 177.916 21.3776 177.304L21.4408 177.051C21.4325 177.031 21.4241 177.011 21.4157 176.991C20.5668 174.954 17.6899 174.968 16.8482 177.008C16.1012 178.818 15.1501 180.632 14.9159 182.547C14.8109 183.392 14.8582 184.253 15.0445 185.082C13.2941 181.234 12.373 177.032 12.373 172.807C12.373 171.745 12.4307 170.683 12.5488 169.624C12.6459 168.758 12.7797 167.897 12.9529 167.044C13.8898 162.433 15.9184 158.04 18.8445 154.372C20.2511 153.598 21.4242 152.389 22.1327 150.939C22.3873 150.416 22.5867 149.853 22.6812 149.28C22.5211 149.301 22.0776 146.848 22.1983 146.697C21.9753 146.357 21.576 146.187 21.3323 145.855C20.1206 144.201 18.4511 144.49 17.5796 146.737C15.7178 147.683 15.6997 149.251 16.8421 150.759C17.5689 151.719 17.6688 153.017 18.3065 154.045C18.2409 154.129 18.1726 154.211 18.107 154.295C16.9039 155.848 15.8634 157.518 14.9862 159.271C15.2341 157.322 14.8681 154.974 14.2441 153.461C13.5338 151.736 12.2024 150.284 11.03 148.793C9.62171 147.003 6.73393 147.784 6.48582 150.054C6.48342 150.076 6.48108 150.098 6.47879 150.12C6.65293 150.219 6.82353 150.324 6.99018 150.435C7.94074 151.067 7.61223 152.55 6.48592 152.725L6.46042 152.729C6.52341 153.361 6.63101 153.986 6.78845 154.602C5.28438 160.456 8.53156 162.588 13.1681 162.683C13.2705 162.736 13.3702 162.789 13.4725 162.839C13.0028 164.17 12.6275 165.536 12.3493 166.92C12.1 168.142 11.9268 169.378 11.8297 170.62C11.709 172.186 11.7195 173.76 11.8507 175.323L11.8429 175.268C11.5096 173.546 10.5806 171.938 9.23166 170.823C7.22222 169.162 4.38325 168.55 2.21541 167.215C1.17187 166.572 -0.165338 167.403 0.0167864 168.62L0.0256521 168.679C0.348436 168.811 0.663342 168.964 0.967765 169.135C1.14191 169.234 1.31251 169.339 1.47916 169.45C2.42972 170.083 2.10121 171.566 0.974904 171.741L0.94938 171.745C0.931015 171.747 0.915262 171.75 0.896921 171.753C1.45065 173.076 2.22217 174.304 3.18791 175.363C4.12837 180.473 8.16765 180.958 12.4884 179.47H12.4911C12.9634 181.54 13.6536 183.563 14.5406 185.491H21.8624C21.8887 185.41 21.9123 185.325 21.9359 185.243C21.2588 185.285 20.5765 185.246 19.9099 185.122C20.4532 184.451 20.9964 183.775 21.5396 183.104C21.5527 183.091 21.5633 183.078 21.5737 183.064C21.8493 182.721 22.1275 182.38 22.403 182.037L22.4032 182.037C22.4204 180.983 22.2949 179.932 22.0461 178.913L22.0459 178.912Z"
            fill="#F2F2F2" />
        <path
            d="M103.938 185.513C103.938 185.783 103.723 186 103.455 186H0.540637C0.272485 186 0.0571289 185.783 0.0571289 185.513C0.0571289 185.244 0.272485 185.027 0.540637 185.027H103.455C103.723 185.027 103.938 185.244 103.938 185.513Z"
            fill="#CCCCCC" />
        <path
            d="M269.866 159.647C275.028 159.647 279.212 155.436 279.212 150.242C279.212 145.048 275.028 140.837 269.866 140.837C264.705 140.837 260.521 145.048 260.521 150.242C260.521 155.436 264.705 159.647 269.866 159.647Z"
            fill="#98A43A" />
        <path
            d="M274.243 149.888L268.444 146.518C268.174 146.361 267.835 146.558 267.835 146.872V149.833H266.096C265.871 149.833 265.689 150.016 265.689 150.242C265.689 150.468 265.871 150.651 266.096 150.651H267.835V153.611C267.835 153.926 268.174 154.123 268.444 153.965L274.243 150.596C274.514 150.439 274.514 150.045 274.243 149.888Z"
            fill="white" />
        <path
            d="M136.791 123.732C137.155 119.54 138.885 115.537 141.652 112.386C144.347 109.317 148.032 107.211 152.005 106.353C154.223 105.875 156.521 105.781 158.767 106.104C159.305 106.181 159.29 107.04 158.747 106.962C154.924 106.413 150.973 107.084 147.538 108.86C144.017 110.681 141.199 113.643 139.458 117.214C138.462 119.257 137.841 121.486 137.644 123.752C137.597 124.3 136.744 124.283 136.791 123.732Z"
            fill="white" />
        <path
            d="M157.821 102.658L164.388 105.918C164.627 106.037 164.666 106.428 164.463 106.597L158.246 111.769C157.826 112.119 157.234 111.5 157.658 111.148L163.874 105.976L163.949 106.655L157.382 103.394C156.889 103.15 157.332 102.415 157.821 102.658Z"
            fill="white" />
    </g>
    <defs>
        <clipPath id="clip0_344_412">
            <rect fill="white" height="186" width="290" />
        </clipPath>
    </defs>
</svg>
