<?xml version="1.0" ?>

<!-- Uploaded to: SVG Repo, www.svgrepo.com, Generator: SVG Repo Mixer Tools -->
<svg height="800px" version="1.1" viewBox="0 0 24 24" width="800px"
    xmlns="http://www.w3.org/2000/svg" xml:space="preserve">

<style type="text/css">
	.st0{opacity:0.2;fill:none;stroke:#000000;stroke-width:5.000000e-02;stroke-miterlimit:10;}
</style>

    <g id="Layer_Grid" />

    <g id="Layer_2">

<path
    d="M7,19c2.8,0,5-2.2,5-5c0,2.8,2.2,5,5,5s5-2.2,5-5v-2c0,0,0-0.1,0-0.1c0-0.1,0-0.1,0-0.2c0-0.1-0.1-0.1-0.1-0.2   c0,0,0-0.1-0.1-0.1l-5-6C16.5,5,16,4.9,15.6,5.1l-2,1c-0.5,0.2-0.7,0.8-0.4,1.3s0.8,0.7,1.3,0.4l1.3-0.6l3.1,3.8H14h-1h-2h-1H5.1   l3.1-3.8l1.3,0.6c0.5,0.2,1.1,0,1.3-0.4c0.2-0.5,0-1.1-0.4-1.3l-2-1C8,4.9,7.5,5,7.2,5.4l-5,6c0,0,0,0.1-0.1,0.1   c0,0.1-0.1,0.1-0.1,0.2c0,0.1,0,0.1,0,0.2c0,0,0,0.1,0,0.1v2C2,16.8,4.2,19,7,19z M14,13h6v1c0,1.7-1.3,3-3,3s-3-1.3-3-3V13z M4,13   h6v1c0,1.7-1.3,3-3,3s-3-1.3-3-3V13z" />

</g>

</svg>